{"asset":{"version":"2.0","generator":"babylon.js glTF exporter for 3dsmax 2019 v20200617.5"},"scene":0,"scenes":[{"nodes":[0,1]}],"nodes":[{"mesh":0,"translation":[5404.962,996.585449,1952.42261],"rotation":[-0.688518,0.63692987,0.158500567,0.3084493],"scale":[18.7099972,18.7099972,18.71],"name":"coal_low_mesh"},{"name":"Default light"}],"meshes":[{"primitives":[{"attributes":{"POSITION":1,"NORMAL":2,"TEXCOORD_0":3},"indices":0,"material":0}],"name":"coal_low_mesh"}],"accessors":[{"bufferView":0,"componentType":5123,"count":36942,"type":"SCALAR","name":"accessorIndices"},{"bufferView":1,"componentType":5126,"count":36942,"max":[41.23336,48.8367348,41.6412277],"min":[-41.2333755,-48.8367348,-41.64124],"type":"VEC3","name":"accessorPositions"},{"bufferView":1,"byteOffset":443304,"componentType":5126,"count":36942,"type":"VEC3","name":"accessorNormals"},{"bufferView":2,"componentType":5126,"count":36942,"type":"VEC2","name":"accessorUVs"}],"bufferViews":[{"buffer":0,"byteLength":73884,"name":"bufferViewScalar"},{"buffer":0,"byteOffset":73884,"byteLength":886608,"byteStride":12,"name":"bufferViewFloatVec3"},{"buffer":0,"byteOffset":960492,"byteLength":295536,"byteStride":8,"name":"bufferViewFloatVec2"}],"buffers":[{"uri":"DBS_ex_01.bin","byteLength":1256028}],"materials":[{"pbrMetallicRoughness":{"baseColorTexture":{"index":1},"metallicRoughnessTexture":{"index":2}},"normalTexture":{"index":0},"name":"Material #47"}],"textures":[{"sampler":0,"source":0,"name":"coal_NRL.jpg"},{"sampler":0,"source":1,"name":"coal_rgb.jpg"},{"sampler":0,"source":2,"name":"coal_spec0.jpg"}],"images":[{"uri":"./coal_NRL.jpg"},{"uri":"./coal_rgb.jpg"},{"uri":"./coal_spec0.jpg"}],"samplers":[{"magFilter":9729,"minFilter":9987}]}